<?xml version="1.0" standalone="no"?>
<!DOCTYPE svg PUBLIC "-//W3C//DTD SVG 20010904//EN"
 "http://www.w3.org/TR/2001/REC-SVG-20010904/DTD/svg10.dtd">
<svg version="1.0" xmlns="http://www.w3.org/2000/svg"
 width="1024.000000pt" height="1024.000000pt" viewBox="0 0 1024.000000 1024.000000"
 preserveAspectRatio="xMidYMid meet">

<g transform="translate(0.000000,1024.000000) scale(0.100000,-0.100000)"
fill="#000000" stroke="none">
<path d="M4575 9780 c-38 -4 -108 -8 -155 -9 -47 -1 -116 -8 -155 -17 -38 -8
-132 -18 -207 -23 -169 -10 -209 -27 -324 -135 -100 -93 -195 -173 -309 -261
-259 -200 -318 -266 -428 -475 -49 -93 -97 -239 -97 -293 0 -8 -27 -68 -60
-132 -55 -107 -60 -122 -60 -181 0 -77 16 -119 59 -157 17 -15 31 -34 31 -42
0 -28 -65 -88 -129 -119 l-65 -31 -2 -140 c-1 -77 -7 -167 -13 -200 -14 -76
-14 -282 -1 -399 9 -77 11 -260 6 -601 l-1 -81 77 -159 c77 -161 110 -247 127
-340 5 -27 15 -63 21 -79 6 -16 9 -30 8 -32 -2 -1 -23 2 -48 6 -25 5 -73 9
-107 10 -55 0 -66 -3 -95 -29 -33 -29 -33 -31 -33 -118 0 -100 20 -309 40
-428 8 -44 18 -123 24 -175 6 -65 24 -138 54 -230 24 -74 59 -191 77 -260 60
-230 102 -354 148 -440 25 -47 54 -92 63 -100 22 -19 64 -137 90 -254 11 -50
37 -143 59 -206 38 -115 147 -371 176 -416 34 -51 65 -204 71 -345 5 -123 3
-143 -17 -205 -31 -93 -54 -138 -86 -163 -24 -19 -28 -19 -55 -6 -15 8 -43 15
-61 15 -45 0 -160 -64 -246 -137 -39 -33 -99 -74 -134 -91 -54 -28 -77 -33
-163 -38 -128 -7 -156 -16 -218 -71 -100 -90 -212 -131 -627 -233 -196 -48
-289 -75 -355 -103 -57 -24 -156 -56 -221 -72 -8 -2 -13 -263 -17 -891 -3
-489 -4 -890 -3 -891 2 -2 794 -2 1762 -1 1527 3 1749 5 1684 17 -156 28 -345
111 -522 228 -119 78 -411 307 -531 416 -48 44 -122 123 -164 176 -42 53 -116
143 -163 201 -154 187 -246 338 -302 496 -28 81 -31 103 -35 239 -5 167 13
326 45 399 14 30 56 75 146 157 70 63 140 122 156 132 41 26 97 112 128 198
25 68 27 85 26 214 -1 77 -6 158 -12 179 -16 56 -12 50 154 -218 116 -187 228
-300 555 -557 321 -252 649 -384 909 -365 197 13 487 124 600 229 19 18 64 56
98 86 68 58 154 165 218 271 22 36 70 101 107 145 59 71 118 158 181 267 l20
33 8 -72 c23 -213 91 -360 247 -531 134 -147 320 -296 428 -344 26 -11 69 -35
97 -53 81 -52 176 -97 241 -116 53 -15 60 -19 58 -40 -4 -36 -168 -362 -231
-459 -62 -95 -212 -249 -367 -375 -108 -88 -217 -182 -442 -381 -81 -72 -206
-180 -278 -239 -71 -60 -170 -145 -220 -190 -49 -44 -108 -94 -130 -112 l-40
-32 1688 -1 1687 0 0 288 c0 159 -3 417 -7 574 l-6 286 -171 62 c-199 73 -381
150 -663 284 -112 52 -266 120 -344 151 -78 31 -162 67 -188 80 -61 31 -112
86 -149 161 -17 34 -39 65 -49 69 -10 4 -92 11 -183 15 -243 12 -318 42 -525
208 -103 82 -234 218 -292 303 -91 132 -117 225 -117 419 l-1 145 82 158 c45
87 89 179 98 205 10 26 33 81 52 122 56 120 155 438 183 585 31 164 69 298
121 428 36 89 41 110 49 235 6 75 15 184 21 242 6 58 9 195 8 305 -3 180 5
384 17 442 4 23 81 73 113 73 29 0 51 -38 51 -87 0 -23 -23 -129 -51 -235 -50
-185 -52 -200 -59 -373 -6 -127 -16 -218 -34 -310 -30 -150 -32 -220 -11 -324
29 -139 0 -202 -120 -259 -36 -18 -65 -34 -65 -37 0 -18 56 1 110 38 106 71
128 138 94 289 -19 83 -15 151 17 308 14 68 24 170 29 290 8 172 11 198 53
365 67 266 69 297 26 344 -25 27 -59 27 -111 0 l-41 -21 7 34 c4 18 16 80 27
138 10 58 32 159 48 225 16 66 50 219 76 340 44 210 65 287 114 419 25 67 25
145 1 272 -13 66 -12 82 13 236 34 211 36 439 7 693 -28 243 -24 233 -146 350
-135 130 -151 152 -159 228 -4 34 -16 88 -26 121 -11 32 -19 69 -19 82 0 40
-18 73 -49 88 -26 14 -44 14 -128 4 -123 -14 -158 -8 -236 45 -34 24 -89 59
-122 79 -33 20 -93 65 -132 100 -138 121 -228 163 -449 207 -170 35 -475 116
-579 154 -38 14 -108 43 -155 65 -47 22 -112 48 -145 57 -70 19 -231 26 -330
15z m-202 -2035 c70 -13 180 -42 245 -65 487 -173 550 -182 832 -128 136 26
307 21 505 -16 217 -41 346 -85 451 -155 104 -68 161 -125 278 -276 139 -179
149 -206 197 -555 26 -185 29 -351 15 -780 -6 -166 -5 -326 2 -460 8 -136 8
-237 2 -300 -6 -52 -15 -158 -21 -235 -6 -77 -18 -158 -26 -180 -71 -191 -125
-364 -138 -450 -25 -157 -122 -495 -180 -625 -18 -41 -52 -118 -74 -170 -23
-52 -57 -120 -75 -150 -19 -30 -54 -91 -78 -135 -45 -81 -78 -136 -152 -255
-22 -36 -82 -114 -132 -175 -98 -118 -315 -335 -334 -335 -6 0 -9 -4 -6 -9 3
-5 -5 -12 -19 -15 -14 -4 -25 -11 -25 -17 0 -6 -4 -7 -10 -4 -5 3 -10 2 -10
-4 0 -5 -25 -21 -56 -35 -30 -14 -53 -30 -49 -36 4 -6 -1 -7 -11 -3 -13 5 -15
3 -9 -7 6 -10 4 -12 -8 -7 -9 3 -19 2 -22 -3 -7 -11 -88 -50 -104 -50 -7 0 -9
-4 -6 -10 3 -5 0 -10 -8 -10 -15 0 -207 -73 -239 -90 -10 -6 -27 -10 -37 -10
-11 0 -22 -4 -25 -9 -9 -14 -166 -12 -246 3 -119 24 -291 99 -479 211 -134 79
-402 298 -542 442 -88 90 -168 205 -274 393 -32 58 -76 132 -97 165 -99 152
-220 449 -266 655 -11 47 -45 184 -76 304 -31 121 -61 249 -67 285 -6 36 -26
129 -45 206 -84 349 -83 608 6 870 42 127 90 403 90 523 0 88 37 312 71 437
29 102 32 127 39 335 11 340 61 642 118 725 49 71 122 112 251 140 63 14 163
39 222 56 189 54 379 58 622 14z m-1519 -1901 c39 -9 77 -18 85 -20 11 -4 13
-21 9 -82 -5 -61 -13 -90 -38 -139 l-33 -62 -3 -278 c-2 -153 -6 -304 -9 -335
-4 -45 1 -76 24 -145 30 -92 52 -189 96 -413 15 -74 33 -157 41 -184 8 -27 12
-51 10 -53 -5 -5 -68 106 -95 167 -10 25 -34 99 -52 165 -59 221 -117 419
-144 493 -31 86 -49 224 -39 302 6 49 13 61 65 116 l59 61 0 77 c0 91 -13 121
-72 169 -53 43 -80 57 -109 57 -19 0 -21 4 -16 38 13 80 76 98 221 66z m-123
-167 c19 -12 44 -42 57 -67 31 -61 23 -138 -20 -192 -27 -35 -58 -50 -58 -29
0 8 -28 269 -31 289 -5 29 8 28 52 -1z m-62 -149 c12 -104 14 -154 6 -146 -3
3 -9 49 -15 104 -5 54 -12 115 -15 134 -4 24 -3 30 3 20 5 -8 15 -59 21 -112z
m3102 -3221 c-10 -9 -11 -8 -5 6 3 10 9 15 12 12 3 -3 0 -11 -7 -18z"/>
<path d="M3555 6064 c-38 -14 -106 -37 -150 -51 -95 -30 -135 -62 -135 -109 0
-17 6 -36 13 -42 7 -6 57 -20 112 -31 55 -11 136 -29 180 -41 68 -18 128 -22
385 -30 433 -13 684 -12 715 2 32 15 41 48 22 84 -37 70 -92 92 -357 139 -80
14 -234 44 -342 66 -244 48 -338 51 -443 13z"/>
<path d="M6035 6010 c-205 -11 -384 -30 -425 -44 -70 -24 -127 -64 -144 -101
-16 -33 -16 -38 -2 -60 9 -13 25 -29 36 -35 10 -6 106 -17 212 -25 224 -17
352 -34 573 -76 88 -17 174 -31 191 -31 52 0 299 95 308 118 9 24 -17 64 -81
125 -137 131 -244 152 -668 129z"/>
<path d="M3745 5724 c-11 -2 -51 -12 -90 -20 -77 -18 -138 -45 -172 -77 -39
-36 -25 -40 30 -8 94 54 201 75 377 76 165 0 239 -14 370 -69 30 -13 66 -27
80 -30 l25 -7 -23 20 c-28 24 -106 54 -227 87 -67 19 -123 26 -220 29 -71 2
-139 2 -150 -1z"/>
<path d="M5806 5654 c-83 -16 -190 -65 -206 -93 -14 -26 -12 -26 41 3 70 39
192 76 276 83 56 5 71 9 53 14 -38 11 -87 9 -164 -7z"/>
<path d="M3795 5635 c-85 -19 -162 -49 -235 -94 -83 -50 -86 -61 -18 -61 43 0
70 9 143 45 49 25 95 45 102 45 8 0 13 -12 13 -29 0 -47 18 -83 67 -133 53
-54 101 -67 172 -48 71 19 132 98 133 171 0 25 5 39 14 39 7 0 48 -16 90 -35
85 -39 107 -40 47 -2 -76 48 -161 86 -227 101 -81 19 -218 19 -301 1z m273
-134 c5 -31 -11 -45 -41 -37 -50 12 -39 70 12 64 19 -2 27 -10 29 -27z"/>
<path d="M5855 5595 c-27 -7 -63 -19 -80 -26 -46 -22 -126 -71 -122 -75 2 -2
34 7 71 21 36 14 71 25 76 25 6 0 10 -22 10 -48 0 -38 6 -58 29 -90 17 -22 38
-43 48 -46 10 -3 62 -7 115 -8 95 -3 97 -3 128 27 43 41 60 76 60 125 0 34 3
40 20 40 28 0 68 -22 119 -64 43 -36 105 -56 122 -39 13 13 -56 75 -119 107
-109 55 -358 82 -477 51z m219 -98 c27 -20 18 -61 -15 -65 -39 -5 -56 21 -35
53 19 29 25 30 50 12z"/>
<path d="M5610 4445 c0 -2 16 -33 35 -68 84 -153 44 -306 -96 -367 -62 -26
-59 -35 6 -19 34 9 62 26 96 58 89 87 92 207 8 347 -28 46 -49 67 -49 49z"/>
<path d="M4367 4368 c-38 -51 -67 -114 -73 -162 -11 -81 33 -169 103 -205 42
-21 47 -11 10 20 -55 45 -77 95 -77 173 0 54 6 75 35 132 39 75 40 93 2 42z"/>
<path d="M5304 4131 c-23 -10 -45 -24 -49 -31 -12 -19 14 -29 49 -19 17 5 54
9 82 9 27 0 58 6 69 13 17 13 17 15 -6 30 -31 22 -94 21 -145 -2z"/>
<path d="M4560 4117 c-14 -7 -25 -19 -25 -27 0 -12 18 -15 105 -12 58 1 116 5
130 8 l25 6 -24 19 c-19 15 -39 19 -105 19 -45 0 -92 -6 -106 -13z"/>
<path d="M4555 3399 c-77 -17 -147 -32 -155 -34 -8 -2 -59 -4 -112 -4 -54 -1
-98 -5 -98 -10 0 -5 20 -14 45 -20 37 -9 48 -18 64 -49 11 -21 39 -54 62 -73
24 -18 72 -59 108 -90 87 -74 162 -121 241 -150 59 -21 81 -24 235 -24 154 0
180 3 274 28 58 15 128 38 157 51 160 73 287 175 325 260 11 26 32 53 49 63
40 23 33 39 -16 33 -76 -9 -140 -3 -209 20 -106 36 -229 37 -320 3 -101 -37
-223 -37 -319 0 -88 35 -149 34 -331 -4z m890 -19 c-3 -5 -1 -10 6 -10 7 0 9
-3 6 -6 -4 -4 -12 -2 -19 4 -7 6 -29 12 -48 15 -30 3 -28 4 13 5 30 1 46 -2
42 -8z m52 -6 c-3 -3 -12 -4 -19 -1 -8 3 -5 6 6 6 11 1 17 -2 13 -5z m-110
-10 c-3 -3 -12 -4 -19 -1 -8 3 -5 6 6 6 11 1 17 -2 13 -5z"/>
<path d="M7026 5699 c-51 -56 -56 -77 -26 -104 15 -14 23 -15 34 -6 14 12 66
131 66 151 0 24 -32 6 -74 -41z"/>
</g>
</svg>
